<svg height="512pt" viewBox="-11 0 512 512" width="512pt" xmlns="http://www.w3.org/2000/svg"><path d="m435.28125 421.316406c34.207031-42.125 54.71875-95.820312 54.71875-154.316406 0-135.308594-109.691406-245-245-245s-245 109.691406-245 245c0 58.496094 20.511719 112.191406 54.71875 154.316406zm0 0" fill="#da2f3c"/><path d="m429.105469 369.824219c0-32.144531-10.683594-67.375-17.683594-87.011719-12.667969 26.234375-32.515625 48.914062-57.261719 65.945312-6.003906 4.132813-11.300781 9.226563-15.472656 15.199219-21.078125 30.179688-31.308594 60.289063-93.6875 60.289063h-.003906c-.785156 0-1.5625-.007813-2.335938-.019532v6.03125c.78125-.015624 1.558594-.039062 2.335938-.039062 39.859375 0 76.511718 21.65625 105.558594 57.90625 33.769531-16.152344 63.277343-39.796875 86.335937-68.808594-4.789063-17.203125-7.785156-34.351562-7.785156-49.492187zm0 0" fill="#f0e2c5"/><path d="m244.664062 430.226562v-5.980468c-62.078124-.109375-72.3125-30.164063-93.351562-60.289063-4.171875-5.972656-9.472656-11.066406-15.476562-15.199219-24.742188-17.03125-44.589844-39.710937-57.257813-65.945312-7 19.636719-17.679687 54.867188-17.679687 87.011719 0 15.144531-3 32.289062-7.789063 49.496093 23.054687 29.007813 52.566406 52.652344 86.335937 68.804688 28.964844-36.148438 65.492188-57.777344 105.21875-57.898438zm0 0" fill="#e5d2b1"/><path d="m245 428.21875c-40.390625 0-77.492188 22.226562-106.71875 59.355469 32.261719 15.640625 68.460938 24.425781 106.71875 24.425781s74.457031-8.785156 106.71875-24.425781c-29.226562-37.128907-66.328125-59.355469-106.71875-59.355469zm0 0" fill="#f9f0e1"/><path d="m354.160156 348.230469c-6 4.128906-11.300781 9.222656-15.472656 15.199219-21.078125 30.175781-31.308594 60.289062-93.6875 60.289062s-72.609375-30.113281-93.6875-60.292969c-4.175781-5.972656-9.472656-11.066406-15.476562-15.195312-20.644532-14.210938-37.878907-32.351563-50.382813-53.207031-.015625.859374-.03125 1.71875-.03125 2.582031 0 84.707031 71.445313 153.378906 159.578125 153.378906s159.578125-68.671875 159.578125-153.378906c0-.863281-.019531-1.722657-.035156-2.582031-12.5 20.855468-29.734375 38.996093-50.382813 53.207031zm0 0" fill="#1bafea"/><path d="m280.648438 419.265625c-16.183594 4.78125-31.699219 4.207031-35.648438 4.453125-62.378906 0-72.609375-30.113281-93.6875-60.292969-4.175781-5.972656-9.472656-11.066406-15.476562-15.195312-20.644532-14.210938-37.878907-32.351563-50.382813-53.207031-.015625.859374-.03125 1.71875-.03125 2.582031 0 100.566406 99.179687 173.96875 200.390625 148.304687-12.878906-2.449218-16.289062-19.464844-5.164062-26.644531zm0 0" fill="#0596d6"/><path d="m409.273438 0c-34.679688 0-68.132813 29.328125-87.378907 49.957031-3.207031 3.441407-8.117187 4.660157-12.589843 3.207031-19.5-6.332031-41.105469-7.269531-64.304688-.269531-23.199219-7-44.804688-6.0625-64.304688.269531-4.472656 1.453126-9.382812.234376-12.589843-3.207031-19.242188-20.628906-52.699219-49.957031-87.378907-49.957031-30.699218 0-18.5625 61.878906-2.652343 114.605469 4.371093 14.492187 3.554687 30.070312-2.417969 43.984375-8.09375 18.859375-12.542969 39.398437-12.542969 60.890625 0 54.484375 28.566407 102.859375 72.722657 133.25 6.003906 4.132812 11.304687 9.222656 15.476562 15.199219 21.078125 30.175781 31.308594 60.289062 93.6875 60.289062s72.609375-30.113281 93.6875-60.289062c4.171875-5.976563 9.472656-11.070313 15.472656-15.199219 44.160156-30.394531 72.726563-78.765625 72.726563-133.253907 0-21.488281-4.449219-42.027343-12.542969-60.886718-5.972656-13.914063-6.789062-29.492188-2.417969-43.984375 15.910157-52.726563 28.042969-114.605469-2.652343-114.605469zm0 0" fill="#f9f0e1"/><path d="m230.046875 367.929688c-2.988281-5.976563-6.78125-11.066407-11.074219-15.199219-31.605468-30.390625-52.046875-78.765625-52.046875-133.25 0-21.492188 3.183594-42.03125 8.976563-60.890625 4.273437-13.910156 4.859375-29.488282 1.726562-43.984375-4.785156-22.160157-9.09375-45.933594-10.847656-66.050781-19.425781-20.53125-52.152344-48.554688-86.054688-48.554688-30.695312 0-18.5625 61.878906-2.652343 114.605469 4.371093 14.492187 3.554687 30.070312-2.417969 43.984375-8.09375 18.859375-12.542969 39.398437-12.542969 60.890625 0 54.484375 28.566407 102.859375 72.722657 133.25 6.003906 4.132812 11.300781 9.222656 15.476562 15.199219 21.078125 30.175781 31.308594 60.289062 93.6875 60.289062 11.867188 0 21.847656-1.09375 30.371094-3.066406-25.976563-8.394532-33.109375-32.785156-45.324219-57.222656zm0 0" fill="#f0e2c5"/><path d="m409.273438 0c-34.679688 0-68.132813 29.328125-87.378907 49.957031-3.207031 3.441407-8.117187 4.660157-12.589843 3.207031-19.5-6.332031-41.105469-7.269531-64.304688-.269531-23.199219-7-44.804688-6.0625-64.304688.269531-4.472656 1.453126-9.382812.234376-12.589843-3.207031-19.246094-20.628906-52.699219-49.957031-87.378907-49.957031-30.699218 0-18.5625 61.878906-2.652343 114.605469 4.371093 14.492187 3.554687 30.070312-2.417969 43.984375-8.09375 18.859375-12.542969 39.398437-12.542969 60.890625 0 9.378906.867188 18.574219 2.496094 27.53125 5.617187-15.667969 18.484375-40.828125 45.539063-53.101563 4.734374-2.148437 8.328124-6.1875 9.859374-11.148437 5.585938-18.101563 23.90625-59.117188 72.898438-45.835938 26.703125 7.238281 36.402344 40.902344 33.976562 57.089844-.695312 4.648437 2.875 8.839844 7.578126 8.839844h9.539062v-.003907.003907h9.539062c4.699219 0 8.273438-4.191407 7.574219-8.839844-2.421875-16.1875 7.273438-49.851563 33.980469-57.089844 48.992188-13.28125 67.3125 27.734375 72.894531 45.835938 1.535157 4.960937 5.128907 9 9.859375 11.148437 27.058594 12.273438 39.925782 37.4375 45.542969 53.105469 1.628906-8.960937 2.496094-18.15625 2.496094-27.535156 0-21.492188-4.449219-42.03125-12.542969-60.890625-5.972656-13.914063-6.789062-29.488282-2.417969-43.984375 15.914063-52.726563 28.042969-114.605469-2.652343-114.605469zm0 0" fill="#fbb03b"/><path d="m209.574219 48.09375c-10.054688.324219-19.703125 2.089844-28.878907 5.070312-4.472656 1.453126-9.382812.234376-12.589843-3.207031-19.242188-20.628906-52.699219-49.957031-87.378907-49.957031-30.699218 0-18.5625 61.878906-2.652343 114.605469 4.371093 14.492187 3.554687 30.070312-2.417969 43.984375-8.09375 18.859375-12.542969 39.398437-12.542969 60.890625 0 9.378906.867188 18.574219 2.496094 27.53125 5.617187-15.667969 18.484375-40.828125 45.539063-53.101563 4.734374-2.148437 8.328124-6.1875 9.859374-11.148437 5.007813-16.21875 20.238282-50.824219 58.589844-48.296875-15.082031-54.609375 16.59375-78.828125 29.976563-86.371094zm0 0" fill="#f7931e"/><path d="m332.027344 202.855469c0 11.1875-9.070313 20.257812-20.257813 20.257812s-20.257812-9.070312-20.257812-20.257812 9.070312-20.257813 20.257812-20.257813 20.257813 9.070313 20.257813 20.257813zm0 0" fill="#574f7f"/><path d="m245 333.988281s-18.644531 6.523438-36.125.726563c.46875 24.207031 16.457031 45.433594 36.125 45.433594 19.671875 0 35.660156-21.226563 36.128906-45.433594-17.484375 5.796875-36.128906-.726563-36.128906-.726563zm0 0" fill="#ed435c"/><path d="m224.398438 355.960938c8.011718.59375 15.175781-.964844 18.554687-1.878907 1.34375-.363281 2.75-.363281 4.09375 0 3.378906.914063 10.542969 2.472657 18.554687 1.878907 3.867188-.289063 7.035157 2.296874 7.972657 5.699218 4.574219-7.652344 7.359375-17.050781 7.554687-26.945312-17.484375 5.800781-36.128906-.726563-36.128906-.726563s-18.644531 6.527344-36.125.726563c.191406 9.898437 2.980469 19.292968 7.550781 26.945312.9375-3.402344 4.105469-5.988281 7.972657-5.699218zm0 0" fill="#da2f3c"/><path d="m423 7.058594c0-.003906-32.035156 5.585937-52.585938 40.554687-3.765624 6.414063-4.972656 14.007813-3.324218 21.261719 1.175781 5.160156 2.230468 12.074219 1.992187 19.683594-.261719 8.355468 4.363281 16.070312 11.691407 20.097656 7.621093 4.191406 17.707031 11.148438 28.429687 22.441406.191406-5.550781 1.097656-11.097656 2.726563-16.492187 12.679687-42.019531 22.957031-89.859375 11.070312-107.546875zm0 0" fill="#f7931e"/><path d="m394.976562 112.09375c-1.890624-9.160156-5.132812-17.125-8.011718-22.953125-4.046875-8.195313-4.777344-17.617187-2.109375-26.359375 8.949219-29.308594 26.25-46.570312 38.261719-55.53125-.042969-.0625-.078126-.132812-.117188-.195312h-.003906s-32.03125 5.589843-52.582032 40.558593c-3.765624 6.414063-4.972656 14.007813-3.324218 21.257813 1.175781 5.160156 2.230468 12.078125 1.992187 19.6875-.261719 8.355468 4.363281 16.066406 11.691407 20.09375 5.070312 2.789062 11.238281 6.816406 17.953124 12.515625-1.773437-2.722657-3.070312-5.777344-3.75-9.074219zm0 0" fill="#f47a21"/><path d="m67 7.058594c.003906-.003906 32.035156 5.585937 52.585938 40.554687 3.765624 6.414063 4.972656 14.007813 3.324218 21.261719-1.175781 5.160156-2.230468 12.074219-1.992187 19.683594.261719 8.355468-4.363281 16.070312-11.6875 20.097656-7.625 4.191406-17.710938 11.148438-28.429688 22.441406-.191406-5.550781-1.101562-11.097656-2.726562-16.492187-12.683594-42.019531-22.964844-89.859375-11.074219-107.546875zm0 0" fill="#f47a21"/><path d="m337.617188 275c-2.21875-4.101562-7.339844-5.625-11.4375-3.40625-3.675782 2.757812-22.753907 7.871094-33.886719 34.949219-7.265625 17.671875-20.851563 23.917969-38.851563 19.390625v-16.179688c0-4.664062-3.777344-8.441406-8.441406-8.441406-4.660156 0-8.441406 3.777344-8.441406 8.441406v16.179688c-17.878906 4.488281-31.535156-1.597656-38.851563-19.390625-11.132812-27.070313-30.179687-32.171875-33.886719-34.949219-4.097656-2.21875-9.222656-.691406-11.4375 3.40625-2.21875 4.097656-.695312 9.222656 3.40625 11.441406 4.21875 3.113282 17.765626 5.753906 26.304688 26.519532 11.519531 28.023437 36.679688 36.742187 62.90625 28.089843 25.847656 8.527344 51.210938.363281 62.90625-28.089843 8.585938-20.882813 22.042969-23.371094 26.304688-26.519532 4.101562-2.21875 5.625-7.34375 3.40625-11.441406zm0 0" fill="#493d71"/><path d="m272.132812 277.5625c0-13.148438-12.148437-16.953125-27.132812-16.953125s-27.128906 3.804687-27.128906 16.953125c0 13.144531 12.144531 32.1875 27.128906 32.1875s27.132812-19.042969 27.132812-32.1875zm0 0" fill="#574f7f"/><path d="m240.621094 275.191406c0-7.46875 3.925781-11.921875 10.058594-14.375-1.832032-.140625-3.730469-.207031-5.679688-.207031-14.984375 0-27.128906 3.804687-27.128906 16.953125 0 13.144531 12.148437 32.1875 27.128906 32.1875 4.773438 0 9.257812-1.9375 13.152344-4.996094-10.246094-5.667968-17.53125-19.382812-17.53125-29.5625zm0 0" fill="#3d3660"/><path d="m291.613281 200.898438c-1.414062 14.714843 12.863281 25.945312 26.832031 21.066406 3.292969-3.1875 5.359376-7.683594 5.359376-12.679688 0-18.007812-23.675782-24.25-32.191407-8.386718zm0 0" fill="#3d3660"/><path d="m198.488281 202.855469c0 11.1875-9.070312 20.257812-20.257812 20.257812s-20.257813-9.070312-20.257813-20.257812 9.070313-20.257813 20.257813-20.257813 20.257812 9.070313 20.257812 20.257813zm0 0" fill="#574f7f"/><path d="m198.390625 200.898438c1.410156 14.714843-12.867187 25.945312-26.832031 21.066406-3.296875-3.1875-5.363282-7.683594-5.363282-12.679688 0-18.007812 23.675782-24.25 32.195313-8.386718zm0 0" fill="#3d3660"/><path d="m95.023438 112.09375c1.890624-9.160156 5.132812-17.125 8.011718-22.953125 4.046875-8.195313 4.777344-17.617187 2.109375-26.359375-8.949219-29.308594-26.25-46.570312-38.261719-55.53125.042969-.0625.078126-.132812.121094-.195312 0 0 32.03125 5.589843 52.582032 40.558593 3.765624 6.414063 4.972656 14.007813 3.324218 21.257813-1.175781 5.160156-2.230468 12.078125-1.992187 19.6875.261719 8.355468-4.363281 16.066406-11.691407 20.09375-5.070312 2.789062-11.238281 6.816406-17.953124 12.515625 1.773437-2.722657 3.070312-5.777344 3.75-9.074219zm0 0" fill="#ea631f"/></svg>